<?xml version="1.0" encoding="UTF-8"?>
<svg width="128px" height="128px" viewBox="0 0 128 128" version="1.1" xmlns="http://www.w3.org/2000/svg" xmlns:xlink="http://www.w3.org/1999/xlink">
    <!-- Generator: Sketch 44.1 (41455) - http://www.bohemiancoding.com/sketch -->
    <title>Artboard</title>
    <desc>Created with Sketch.</desc>
    <defs>
        <linearGradient x1="50%" y1="100%" x2="50%" y2="0%" id="linearGradient-1">
            <stop stop-color="#7DC9F3" stop-opacity="0" offset="0%"></stop>
            <stop stop-color="#69C1F2" offset="99.95%"></stop>
        </linearGradient>
    </defs>
    <g id="Page-1" stroke="none" stroke-width="1" fill="none" fill-rule="evenodd">
        <g id="Artboard" fill-rule="nonzero">
            <g id="ht" transform="translate(1.000000, 7.000000)">
                <path d="M21,65.020998 C21,36.2907605 44.3397558,13 73,13 L73,13 C101.718239,13 125,36.3397558 125,65 L125,65 C125,93.7182386 101.660244,117 73,117 L21,117 L21,65.0579944" id="Rectangle-Copy-52_22_" fill="#69C1F2"></path>
                <path d="M62,110 L73,110 C79.075653,110 84,105.51842 84,100.001399 L84,60 L62,60" id="Rectangle-Copy-11_9_" fill="#FFFFFF"></path>
                <path d="M20.0080036,40 C8.95803111,40 0,31.0229603 0,20 L0,20 C0,8.95402931 8.97703967,0 20,0 L20,0 C31.0459707,0 40,8.97703967 40,20 L40,40 L20.0220099,40" id="Rectangle-Copy-52_21_" fill="#48F2E6" opacity="0.6"></path>
                <rect id="Rectangle-path" fill="url(#linearGradient-1)" x="62" y="61" width="22" height="29"></rect>
                <path d="M51.2943518,61 C45.0486777,61 40,56.5225399 40,51 L40,41 L92.7056482,41 C98.9513223,41 104,45.4774601 104,51 L104,51 C104,56.5113463 98.9433622,61 92.7056482,61" id="Rectangle-Copy-8_8_" fill="#FFFFFF"></path>
            </g>
        </g>
    </g>
</svg>